# xmcd CD database file generated by OrangeCD 6.0
#
# Track frame offsets:
#	150
#	15577
#	40955
#	57702
#	86302
#	99300
#	121172
#	146600
#	164362
#	194977
#	218872
#	241790
#	261127
#	300167
#
# Disc length: 4263 seconds
#
# Revision: 3
# Processed by: cddbd v1.5.2PL0 Copyright (c) Steve Scherf et al.
# Submitted via: OrangeCD 6.0
#
DISCID=bb10a50e
DTITLE=Buddy Guy - As Good As It Gets
DYEAR=1998
DGENRE=Blues
TTITLE0=Poison Ivy
TTITLE1=One Room Country Shack
TTITLE2=The Things I Used To Do
TTITLE3=(You Give Me) Fever
TTITLE4=24 Hours Of The Day
TTITLE5=You Were Wrong
TTITLE6=Sweet Little Angel
TTITLE7=You Got A Hole In Your Soul
TTITLE8=Slow Blues (Instrumental)
TTITLE9=The Dream
TTITLE10=I'm Ready
TTITLE11=My Time After Awhile
TTITLE12=Come See About Me
TTITLE13=Stormy Monday Blues
EXTD=
EXTT0=
EXTT1=
EXTT2=
EXTT3=
EXTT4=
EXTT5=
EXTT6=
EXTT7=
EXTT8=
EXTT9=
EXTT10=
EXTT11=
EXTT12=
EXTT13=
PLAYORDER=
